<svg version="1.1" xmlns="http://www.w3.org/2000/svg" xmlns:xlink="http://www.w3.org/1999/xlink" x="0px" y="0px"
	 viewBox="0 0 792 612" enable-background="new 0 0 792 612" xml:space="preserve">
	<path fill="#CF2127" d="M672.416,355.102 697.012,388.125 749.686,388.125 724.934,355.102"/>
	<path fill="#CF2127" d="M720.326,348.742 720.326,349.2 609.248,349.2 632.367,317.967 697.811,317.967"/>
	<path fill="#CF2127" d="M608.254,277.301 632.998,310.76 692.053,310.76 667.639,277.301"/>
	<path fill="#CF2127" d="M602.898,279.719 626.516,312.549 572.617,386.773 572.617,319.938"/>
	<path fill="#CF2127" d="M392.325,277.301 392.325,388.127 565.436,388.127 565.436,319.939 482.58,319.939 482.58,350.748 523.199,350.748 523.199,357.955 436.873,357.955 436.873,310.76 565.436,310.76 565.436,277.301"/>
	<rect x="249.748" y="358.973" fill="#CF2127" width="135.383" height="29.154"/>
	<path fill="#CF2127" d="M385.13,316.564 385.13,351.789 249.747,351.789 249.612,351.789 249.612,316.564 249.747,316.564"/>
	<path fill="#CF2127" d="M249.598,277.301 249.598,309.359 249.746,309.359 385.129,309.359 385.129,277.301"/>
	<path fill="#CF2127" d="M204.822,327.191 204.822,388.127 242.551,388.127 242.551,283.226"/>
	<path fill="#CF2127" d="M195.039,277.303 134.096,348.405 154.699,376.057 238.996,277.761 238.453,277.303"/>
	<path fill="#CF2127" d="M76.636,277.301 129.826,343.194 149.877,319.854 115.522,277.301"/>
	<path fill="#CF2127" d="M73.382,388.127 110.963,388.127 110.963,329.588 73.382,282.997"/>
	<path fill="none" stroke="#4D5CA9" stroke-width="2" stroke-miterlimit="10" d="M715.803,328.004h51.947l-64.572-15.451 M594.916,282.573l-24.268-6.806 M549.766,270.106l-167.164-45.141 M66.186,327.846H15.251 M15.253,327.58l51.669-13.545 M136.853,293.456l47.16-13.204 M217.738,270.106l164.865-45.141"/>
</svg>
